<svg width="500" height="500" viewBox="0 0 500 500" fill="none" xmlns="http://www.w3.org/2000/svg">
<path d="M397.503 270.387C378.289 318.101 350.956 362.127 316.716 400.512C296.072 387.695 275.427 374.878 254.783 362.061C289.024 323.676 316.356 279.651 335.57 231.936C356.214 244.753 376.858 257.57 397.503 270.387Z" fill="#407BFF"/>
<path opacity="0.4" d="M397.505 270.383C378.286 318.102 350.951 362.125 316.713 400.509C307.793 394.972 298.873 389.434 289.943 383.893L289.939 383.886C278.22 376.616 266.506 369.335 254.783 362.058C289.021 323.675 316.356 279.651 335.568 231.936C356.214 244.757 376.856 257.572 397.505 270.383Z" fill="white"/>
<path opacity="0.2" d="M345.757 242.81C343.654 247.908 338.068 249.652 333.411 246.76C316.459 285.337 294.118 321.315 267.057 353.615C271.716 356.506 272.63 362.285 268.992 366.431C281.86 374.42 294.727 382.409 307.595 390.398C311.233 386.251 317.863 385.16 322.518 388.049C349.579 355.749 371.92 319.772 388.872 281.194C384.216 278.306 382.256 271.877 384.36 266.778C384.371 266.752 384.381 266.726 384.392 266.7C371.525 258.711 358.657 250.722 345.789 242.734C345.779 242.758 345.768 242.783 345.757 242.81ZM347.551 330.56C341.606 340.108 328.662 342.792 319.151 336.887C309.627 330.972 307.139 318.709 313.083 309.161C319.041 299.622 331.169 296.428 340.693 302.342C350.206 308.245 353.509 321.022 347.551 330.56Z" fill="black"/>
<g opacity="0.2">
<path d="M340.625 323.707C341.477 324.236 342.33 324.765 343.182 325.294C342.795 325.921 342.406 326.548 342.016 327.173C341.171 326.649 340.326 326.124 339.482 325.6C337.947 327.759 335.837 329.463 334.048 330.005C333.498 329.188 332.948 328.37 332.398 327.552C334.025 327.005 335.772 325.71 337.016 324.069C335.494 323.124 333.972 322.179 332.45 321.234C330.251 323.393 327.692 325.583 324.518 323.612C322.186 322.164 321.248 319.231 323.135 315.451C322.275 314.917 321.415 314.383 320.555 313.849C320.945 313.224 321.334 312.597 321.721 311.97C322.566 312.495 323.411 313.019 324.255 313.544C325.395 311.902 326.946 310.483 328.494 309.73C329.073 310.523 329.652 311.316 330.23 312.109C328.784 312.894 327.61 313.941 326.721 315.074C328.258 316.028 329.795 316.983 331.333 317.937C333.524 315.772 335.997 313.468 339.17 315.437C341.496 316.881 342.481 319.873 340.625 323.707ZM329.688 319.52C328.333 318.679 326.978 317.838 325.624 316.997C324.86 318.779 325.247 319.97 326.253 320.594C327.348 321.275 328.472 320.606 329.688 319.52ZM337.593 318.523C336.474 317.829 335.334 318.517 334.096 319.654C335.443 320.49 336.79 321.327 338.137 322.163C338.919 320.329 338.574 319.132 337.593 318.523Z" fill="black"/>
</g>
<path opacity="0.2" d="M397.505 270.383C378.286 318.102 350.951 362.125 316.713 400.509C307.793 394.972 298.873 389.434 289.943 383.893L289.939 383.886L268.693 348.001C268.693 348.001 353.444 312.877 397.505 270.383Z" fill="black"/>
<path d="M443.499 337.404C404.031 370.39 359.148 396.291 310.84 413.957C298.695 392.91 286.549 371.864 274.404 350.817C322.713 333.15 367.595 307.25 407.063 274.264C419.208 295.311 431.354 316.358 443.499 337.404Z" fill="#407BFF"/>
<path opacity="0.4" d="M443.499 337.404C404.031 370.39 359.148 396.291 310.84 413.957C298.695 392.91 286.549 371.864 274.404 350.817C322.713 333.15 367.595 307.25 407.063 274.264C419.208 295.311 431.354 316.358 443.499 337.404Z" fill="white"/>
<path opacity="0.2" d="M410.909 288.661C406.648 292.162 400.9 291.062 398.161 286.312C365.001 312.312 328.319 333.475 289.213 349.169C291.955 353.917 290.031 359.443 284.867 361.38C292.437 374.498 300.007 387.618 307.577 400.736C312.742 398.798 319.101 400.966 321.841 405.711C360.947 390.018 397.63 368.854 430.79 342.854C428.049 338.11 429.358 331.518 433.62 328.017C433.642 327.999 433.663 327.981 433.685 327.964C426.115 314.846 418.545 301.726 410.974 288.608C410.953 288.626 410.931 288.643 410.909 288.661ZM371.053 366.859C361.304 372.468 348.626 368.722 343.031 359.025C337.429 349.314 341.027 337.329 350.775 331.72C360.531 326.125 372.73 329.036 378.333 338.747C383.931 348.442 380.809 361.265 371.053 366.859Z" fill="black"/>
<g opacity="0.2">
<path d="M368.184 357.546C368.685 358.415 369.187 359.284 369.688 360.153C369.051 360.523 368.412 360.892 367.773 361.259C367.276 360.398 366.779 359.537 366.282 358.675C363.909 359.853 361.245 360.359 359.413 359.992C359.314 359.012 359.216 358.032 359.117 357.051C360.81 357.337 362.961 357.02 364.832 356.162C363.936 354.61 363.041 353.059 362.146 351.507C359.188 352.372 355.898 353.094 354.031 349.858C352.659 347.48 353.217 344.452 356.665 342.011C356.159 341.134 355.653 340.258 355.147 339.381C355.786 339.014 356.424 338.645 357.062 338.275C357.559 339.136 358.056 339.997 358.553 340.859C360.333 339.95 362.371 339.431 364.09 339.499C364.226 340.472 364.362 341.444 364.496 342.416C362.851 342.425 361.322 342.793 360.003 343.373C360.907 344.94 361.812 346.507 362.716 348.074C365.67 347.201 368.938 346.337 370.805 349.571C372.175 351.94 371.63 355.042 368.184 357.546ZM360.52 348.69C359.723 347.309 358.926 345.928 358.129 344.547C356.614 345.757 356.393 346.99 356.985 348.014C357.629 349.132 358.935 349.073 360.52 348.69ZM367.959 351.544C367.3 350.403 365.971 350.472 364.342 350.889C365.135 352.262 365.927 353.636 366.72 355.009C368.275 353.762 368.536 352.544 367.959 351.544Z" fill="black"/>
</g>
<path d="M382.026 413.957L421.059 413.957L421.059 406.293L382.026 406.293L382.026 413.957Z" fill="#407BFF"/>
<path opacity="0.2" d="M382.025 413.957H390.627V406.293H382.025V413.957Z" fill="black"/>
<path opacity="0.2" d="M394.763 406.293H391.629V413.957H394.763V406.293Z" fill="black"/>
<path opacity="0.2" d="M398.774 406.293H396.629V413.957H398.774V406.293Z" fill="black"/>
<path opacity="0.2" d="M402.701 406.293H401.629V413.957H402.701V406.293Z" fill="black"/>
<path opacity="0.2" d="M409.165 406.293H408.629V413.957H409.165V406.293Z" fill="black"/>
<path d="M383.871 406.336L422.904 406.336L422.904 398.672L383.871 398.672L383.871 406.336Z" fill="#407BFF"/>
<path opacity="0.2" d="M383.871 406.336H392.473V398.672H383.871V406.336Z" fill="black"/>
<path opacity="0.2" d="M396.609 398.672H393.475V406.336H396.609V398.672Z" fill="black"/>
<path opacity="0.2" d="M400.62 398.672H398.475V406.336H400.62V398.672Z" fill="black"/>
<path opacity="0.2" d="M404.547 398.672H403.475V406.336H404.547V398.672Z" fill="black"/>
<path opacity="0.2" d="M411.011 398.672H410.475V406.336H411.011V398.672Z" fill="black"/>
<path d="M380.383 398.717H419.416V391.053H380.383V398.717Z" fill="#407BFF"/>
<path opacity="0.2" d="M380.382 398.717H388.984V391.053H380.382V398.717Z" fill="black"/>
<path opacity="0.2" d="M393.118 391.053H389.984V398.717H393.118V391.053Z" fill="black"/>
<path opacity="0.2" d="M397.129 391.053H394.984V398.717H397.129V391.053Z" fill="black"/>
<path opacity="0.2" d="M401.056 391.053H399.984V398.717H401.056V391.053Z" fill="black"/>
<path opacity="0.2" d="M407.52 391.053H406.984V398.717H407.52V391.053Z" fill="black"/>
<path d="M382.026 391.096L421.059 391.096L421.059 383.432L382.026 383.432L382.026 391.096Z" fill="#407BFF"/>
<path opacity="0.2" d="M382.027 391.096H390.629V383.432H382.027V391.096Z" fill="black"/>
<path opacity="0.2" d="M394.763 383.432H391.629V391.096H394.763V383.432Z" fill="black"/>
<path opacity="0.2" d="M398.774 383.432H396.629V391.096H398.774V383.432Z" fill="black"/>
<path opacity="0.2" d="M402.701 383.432H401.629V391.096H402.701V383.432Z" fill="black"/>
<path opacity="0.2" d="M409.165 383.432H408.629V391.096H409.165V383.432Z" fill="black"/>
<path d="M383.026 383.476L422.059 383.477L422.059 375.813L383.026 375.812L383.026 383.476Z" fill="#407BFF"/>
<path opacity="0.2" d="M383.025 383.477H391.627V375.813H383.025V383.477Z" fill="black"/>
<path opacity="0.2" d="M395.763 375.812H392.629V383.477H395.763V375.812Z" fill="black"/>
<path opacity="0.2" d="M399.774 375.812H397.629V383.477H399.774V375.812Z" fill="black"/>
<path opacity="0.2" d="M403.701 375.812H402.629V383.477H403.701V375.812Z" fill="black"/>
<path opacity="0.2" d="M410.165 375.812H409.629V383.477H410.165V375.812Z" fill="black"/>
<path d="M382.026 375.857L421.059 375.857L421.059 368.193L382.026 368.193L382.026 375.857Z" fill="#407BFF"/>
<path opacity="0.2" d="M382.025 375.857H390.627V368.193H382.025V375.857Z" fill="black"/>
<path opacity="0.2" d="M394.763 368.193H391.629V375.857H394.763V368.193Z" fill="black"/>
<path opacity="0.2" d="M398.774 368.193H396.629V375.857H398.774V368.193Z" fill="black"/>
<path opacity="0.2" d="M402.701 368.193H401.629V375.857H402.701V368.193Z" fill="black"/>
<path opacity="0.2" d="M409.165 368.193H408.629V375.857H409.165V368.193Z" fill="black"/>
<path d="M382.026 368.236L421.059 368.236L421.059 360.572L382.026 360.572L382.026 368.236Z" fill="#407BFF"/>
<path opacity="0.2" d="M382.025 368.236H390.627V360.572H382.025V368.236Z" fill="black"/>
<path opacity="0.2" d="M394.763 360.572H391.629V368.236H394.763V360.572Z" fill="black"/>
<path opacity="0.2" d="M398.774 360.572H396.629V368.236H398.774V360.572Z" fill="black"/>
<path opacity="0.2" d="M402.701 360.572H401.629V368.236H402.701V360.572Z" fill="black"/>
<path opacity="0.2" d="M409.165 360.572H408.629V368.236H409.165V360.572Z" fill="black"/>
<path d="M384.026 360.617L423.059 360.617L423.059 352.953L384.026 352.953L384.026 360.617Z" fill="#407BFF"/>
<path opacity="0.2" d="M384.027 360.617H392.629V352.953H384.027V360.617Z" fill="black"/>
<path opacity="0.2" d="M396.763 352.953H393.629V360.617H396.763V352.953Z" fill="black"/>
<path opacity="0.2" d="M400.774 352.953H398.629V360.617H400.774V352.953Z" fill="black"/>
<path opacity="0.2" d="M404.701 352.953H403.629V360.617H404.701V352.953Z" fill="black"/>
<path opacity="0.2" d="M411.165 352.953H410.629V360.617H411.165V352.953Z" fill="black"/>
<path d="M382.026 352.996L421.059 352.996L421.059 345.332L382.026 345.332L382.026 352.996Z" fill="#407BFF"/>
<path opacity="0.2" d="M382.027 352.996H390.629V345.332H382.027V352.996Z" fill="black"/>
<path opacity="0.2" d="M394.763 345.332H391.629V352.996H394.763V345.332Z" fill="black"/>
<path opacity="0.2" d="M398.774 345.332H396.629V352.996H398.774V345.332Z" fill="black"/>
<path opacity="0.2" d="M402.701 345.332H401.629V352.996H402.701V345.332Z" fill="black"/>
<path opacity="0.2" d="M409.165 345.332H408.629V352.996H409.165V345.332Z" fill="black"/>
<path d="M380.026 345.377H419.059V337.713H380.026V345.377Z" fill="#407BFF"/>
<path opacity="0.2" d="M380.027 345.377H388.629V337.713H380.027V345.377Z" fill="black"/>
<path opacity="0.2" d="M392.763 337.713H389.629V345.377H392.763V337.713Z" fill="black"/>
<path opacity="0.2" d="M396.774 337.713H394.629V345.377H396.774V337.713Z" fill="black"/>
<path opacity="0.2" d="M400.701 337.713H399.629V345.377H400.701V337.713Z" fill="black"/>
<path opacity="0.2" d="M407.165 337.713H406.629V345.377H407.165V337.713Z" fill="black"/>
<path d="M347.602 413.957L386.635 413.957L386.635 406.293L347.602 406.293L347.602 413.957Z" fill="#407BFF"/>
<path opacity="0.2" d="M347.601 413.957H356.203V406.293H347.601V413.957Z" fill="black"/>
<path opacity="0.2" d="M360.339 406.293H357.205V413.957H360.339V406.293Z" fill="black"/>
<path opacity="0.2" d="M364.35 406.293H362.205V413.957H364.35V406.293Z" fill="black"/>
<path opacity="0.2" d="M368.277 406.293H367.205V413.957H368.277V406.293Z" fill="black"/>
<path opacity="0.2" d="M374.741 406.293H374.205V413.957H374.741V406.293Z" fill="black"/>
<path d="M349.602 406.338L388.635 406.338L388.635 398.674L349.602 398.674L349.602 406.338Z" fill="#407BFF"/>
<path opacity="0.2" d="M349.603 406.338H358.205V398.674H349.603V406.338Z" fill="black"/>
<path opacity="0.2" d="M362.339 398.674H359.205V406.338H362.339V398.674Z" fill="black"/>
<path opacity="0.2" d="M366.35 398.674H364.205V406.338H366.35V398.674Z" fill="black"/>
<path opacity="0.2" d="M370.277 398.674H369.205V406.338H370.277V398.674Z" fill="black"/>
<path opacity="0.2" d="M376.741 398.674H376.205V406.338H376.741V398.674Z" fill="black"/>
<path d="M347.602 398.717L386.635 398.717L386.635 391.053L347.602 391.053L347.602 398.717Z" fill="#407BFF"/>
<path opacity="0.2" d="M347.601 398.717H356.203V391.053H347.601V398.717Z" fill="black"/>
<path opacity="0.2" d="M360.339 391.053H357.205V398.717H360.339V391.053Z" fill="black"/>
<path opacity="0.2" d="M364.35 391.053H362.205V398.717H364.35V391.053Z" fill="black"/>
<path opacity="0.2" d="M368.277 391.053H367.205V398.717H368.277V391.053Z" fill="black"/>
<path opacity="0.2" d="M374.741 391.053H374.205V398.717H374.741V391.053Z" fill="black"/>
<path d="M348.602 391.098L387.635 391.098L387.635 383.434L348.602 383.434L348.602 391.098Z" fill="#407BFF"/>
<path opacity="0.2" d="M348.601 391.098H357.203V383.434H348.601V391.098Z" fill="black"/>
<path opacity="0.2" d="M361.339 383.434H358.205V391.098H361.339V383.434Z" fill="black"/>
<path opacity="0.2" d="M365.35 383.434H363.205V391.098H365.35V383.434Z" fill="black"/>
<path opacity="0.2" d="M369.277 383.434H368.205V391.098H369.277V383.434Z" fill="black"/>
<path opacity="0.2" d="M375.741 383.434H375.205V391.098H375.741V383.434Z" fill="black"/>
<path d="M347.602 383.476L386.635 383.477L386.635 375.813L347.602 375.812L347.602 383.476Z" fill="#407BFF"/>
<path opacity="0.2" d="M347.601 383.477H356.203V375.813H347.601V383.477Z" fill="black"/>
<path opacity="0.2" d="M360.339 375.812H357.205V383.477H360.339V375.812Z" fill="black"/>
<path opacity="0.2" d="M364.35 375.812H362.205V383.477H364.35V375.812Z" fill="black"/>
<path opacity="0.2" d="M368.277 375.812H367.205V383.477H368.277V375.812Z" fill="black"/>
<path opacity="0.2" d="M374.741 375.812H374.205V383.477H374.741V375.812Z" fill="black"/>
<path d="M350.602 375.857L389.635 375.857L389.635 368.193L350.602 368.193L350.602 375.857Z" fill="#407BFF"/>
<path opacity="0.2" d="M350.601 375.857H359.203V368.193H350.601V375.857Z" fill="black"/>
<path opacity="0.2" d="M363.339 368.193H360.205V375.857H363.339V368.193Z" fill="black"/>
<path opacity="0.2" d="M367.35 368.193H365.205V375.857H367.35V368.193Z" fill="black"/>
<path opacity="0.2" d="M371.277 368.193H370.205V375.857H371.277V368.193Z" fill="black"/>
<path opacity="0.2" d="M377.741 368.193H377.205V375.857H377.741V368.193Z" fill="black"/>
<path d="M321.815 413.956H176.126C170.381 413.956 165.723 409.299 165.723 403.553V107.897C165.723 102.152 170.38 97.4941 176.126 97.4941H321.815C327.56 97.4941 332.217 102.151 332.217 107.897V403.553C332.217 409.298 327.56 413.956 321.815 413.956Z" fill="#263238"/>
<path d="M326.652 107.528V403.389C326.652 405.682 324.809 407.465 322.516 407.465H175.092C172.984 407.465 171.396 405.833 171.396 403.725V107.193C171.396 105.367 172.737 103.77 174.563 103.77H211.419C212.46 103.77 213.404 104.449 213.792 105.428L215.318 109.186C215.706 110.156 216.65 110.827 217.691 110.827H280.438C281.479 110.827 282.422 110.183 282.81 109.213L284.336 105.438C284.724 104.459 285.669 103.771 286.71 103.771H323.035C325.046 103.77 326.652 105.517 326.652 107.528Z" fill="#407BFF"/>
<path opacity="0.7" d="M326.647 116.084H171.391V395.244H326.647V116.084Z" fill="white"/>
<path opacity="0.6" d="M245.506 106.268C246.683 106.268 247.637 105.314 247.637 104.137C247.637 102.96 246.683 102.006 245.506 102.006C244.329 102.006 243.375 102.96 243.375 104.137C243.375 105.314 244.329 106.268 245.506 106.268Z" fill="white"/>
<path opacity="0.6" d="M251.951 104.136C251.951 104.89 251.34 105.501 250.586 105.501C249.832 105.501 249.221 104.89 249.221 104.136C249.221 103.382 249.832 102.771 250.586 102.771C251.34 102.771 251.951 103.382 251.951 104.136Z" fill="white"/>
<path opacity="0.6" d="M188.904 112.006H190.822V109.449H188.904V112.006Z" fill="white"/>
<path opacity="0.6" d="M185.779 112.006H187.697V108.597H185.779V112.006Z" fill="white"/>
<path opacity="0.6" d="M182.654 112.006H184.572V107.744H182.654V112.006Z" fill="white"/>
<path opacity="0.6" d="M179.529 112.006H181.447V106.891H179.529V112.006Z" fill="white"/>
<path opacity="0.6" d="M309.481 108.518H308.344V111.074H309.481V108.518Z" fill="white"/>
<path opacity="0.6" d="M310.262 112.008H319.318V107.585H310.262V112.008Z" fill="white"/>
<path d="M326.734 116.115H171.203V141.314H326.734V116.115Z" fill="#263238"/>
<g opacity="0.7">
<path d="M210.42 125.07V127.624H214.474V128.943H210.42V132.157H208.861V123.762H214.989V125.07H210.42Z" fill="white"/>
<path d="M216.037 123.799C216.037 123.295 216.445 122.9 216.996 122.9C217.547 122.9 217.955 123.272 217.955 123.763C217.955 124.291 217.559 124.699 216.996 124.699C216.445 124.698 216.037 124.303 216.037 123.799ZM216.241 125.754H217.74V132.158H216.241V125.754Z" fill="white"/>
<path d="M226.017 128.488V132.158H224.518V128.68C224.518 127.54 223.954 126.989 222.995 126.989C221.928 126.989 221.208 127.637 221.208 128.92V132.158H219.709V125.754H221.136V126.581C221.628 125.994 222.407 125.682 223.343 125.682C224.878 125.682 226.017 126.557 226.017 128.488Z" fill="white"/>
<path d="M233.291 128.404V132.158H231.875V131.378C231.515 131.93 230.82 132.242 229.86 132.242C228.397 132.242 227.473 131.438 227.473 130.323C227.473 129.256 228.193 128.416 230.136 128.416H231.791V128.32C231.791 127.444 231.264 126.929 230.196 126.929C229.477 126.929 228.733 127.169 228.253 127.565L227.666 126.473C228.35 125.946 229.345 125.682 230.376 125.682C232.223 125.682 233.291 126.557 233.291 128.404ZM231.791 130.155V129.411H230.244C229.224 129.411 228.949 129.795 228.949 130.263C228.949 130.802 229.405 131.151 230.172 131.151C230.904 131.151 231.539 130.815 231.791 130.155Z" fill="white"/>
<path d="M241.521 128.488V132.158H240.022V128.68C240.022 127.54 239.458 126.989 238.499 126.989C237.432 126.989 236.712 127.637 236.712 128.92V132.158H235.213V125.754H236.64V126.581C237.132 125.994 237.911 125.682 238.847 125.682C240.382 125.682 241.521 126.557 241.521 128.488Z" fill="white"/>
<path d="M242.965 128.956C242.965 127.037 244.405 125.682 246.431 125.682C247.678 125.682 248.674 126.198 249.165 127.169L248.014 127.841C247.63 127.229 247.055 126.953 246.419 126.953C245.316 126.953 244.476 127.721 244.476 128.956C244.476 130.203 245.316 130.959 246.419 130.959C247.055 130.959 247.63 130.683 248.014 130.071L249.165 130.743C248.673 131.703 247.678 132.242 246.431 132.242C244.405 132.242 242.965 130.875 242.965 128.956Z" fill="white"/>
<path d="M256.365 129.436H251.34C251.52 130.372 252.3 130.971 253.415 130.971C254.135 130.971 254.698 130.743 255.154 130.276L255.957 131.199C255.381 131.883 254.482 132.242 253.378 132.242C251.232 132.242 249.84 130.863 249.84 128.956C249.84 127.049 251.243 125.682 253.151 125.682C255.022 125.682 256.389 126.99 256.389 128.993C256.389 129.113 256.377 129.293 256.365 129.436ZM251.328 128.441H254.962C254.842 127.517 254.134 126.881 253.151 126.881C252.179 126.882 251.472 127.506 251.328 128.441Z" fill="white"/>
<path d="M266.734 130.216H262.536L261.709 132.159H260.102L263.88 123.764H265.415L269.205 132.159H267.574L266.734 130.216ZM266.218 128.993L264.635 125.323L263.064 128.993H266.218Z" fill="white"/>
<path d="M276.933 128.956C276.933 130.947 275.554 132.242 273.683 132.242C272.867 132.242 272.148 131.966 271.632 131.378V134.484H270.133V125.753H271.56V126.592C272.064 125.98 272.808 125.68 273.683 125.68C275.554 125.682 276.933 126.977 276.933 128.956ZM275.41 128.956C275.41 127.732 274.594 126.953 273.515 126.953C272.435 126.953 271.608 127.732 271.608 128.956C271.608 130.179 272.436 130.959 273.515 130.959C274.594 130.959 275.41 130.179 275.41 128.956Z" fill="white"/>
<path d="M285.165 128.956C285.165 130.947 283.786 132.242 281.915 132.242C281.099 132.242 280.38 131.966 279.864 131.378V134.484H278.365V125.753H279.792V126.592C280.296 125.98 281.039 125.68 281.915 125.68C283.786 125.682 285.165 126.977 285.165 128.956ZM283.642 128.956C283.642 127.732 282.826 126.953 281.747 126.953C280.668 126.953 279.84 127.732 279.84 128.956C279.84 130.179 280.668 130.959 281.747 130.959C282.826 130.959 283.642 130.179 283.642 128.956Z" fill="white"/>
</g>
<g opacity="0.7">
<path d="M181.751 133.401C181.495 133.401 181.239 133.303 181.044 133.108L177.291 129.355C176.9 128.964 176.9 128.332 177.291 127.941L181.044 124.188C181.435 123.797 182.067 123.797 182.458 124.188C182.849 124.579 182.849 125.211 182.458 125.602L179.412 128.648L182.458 131.694C182.849 132.085 182.849 132.717 182.458 133.108C182.263 133.304 182.007 133.401 181.751 133.401Z" fill="white"/>
</g>
<g opacity="0.7">
<path d="M320.938 124.989C320.938 125.617 320.429 126.126 319.801 126.126C319.173 126.126 318.664 125.617 318.664 124.989C318.664 124.361 319.173 123.852 319.801 123.852C320.429 123.852 320.938 124.361 320.938 124.989Z" fill="white"/>
<path d="M320.938 128.649C320.938 129.277 320.429 129.786 319.801 129.786C319.173 129.786 318.664 129.277 318.664 128.649C318.664 128.021 319.173 127.512 319.801 127.512C320.429 127.512 320.938 128.021 320.938 128.649Z" fill="white"/>
<path d="M320.938 132.309C320.938 132.937 320.429 133.446 319.801 133.446C319.173 133.446 318.664 132.937 318.664 132.309C318.664 131.681 319.173 131.172 319.801 131.172C320.429 131.172 320.938 131.681 320.938 132.309Z" fill="white"/>
</g>
<path d="M230.56 163.855V165.198H229.577V163.867C228.401 163.795 227.262 163.411 226.639 162.871L227.179 161.66C227.767 162.14 228.666 162.487 229.578 162.571V160.173C228.247 159.849 226.819 159.417 226.819 157.75C226.819 156.527 227.707 155.46 229.578 155.279V153.924H230.561V155.255C231.448 155.303 232.348 155.567 232.996 155.986L232.504 157.198C231.868 156.826 231.196 156.622 230.561 156.55V158.973C231.892 159.297 233.343 159.716 233.343 161.384C233.342 162.607 232.442 163.662 230.56 163.855ZM229.576 158.721V156.586C228.724 156.718 228.365 157.15 228.365 157.677C228.365 158.253 228.88 158.517 229.576 158.721ZM231.807 161.492C231.807 160.904 231.279 160.628 230.56 160.425V162.548C231.435 162.415 231.807 162.007 231.807 161.492Z" fill="#407BFF"/>
<path d="M240.508 155.363V163.759H238.949V156.671H237.174V155.363H240.508Z" fill="#407BFF"/>
<path d="M248.989 161.348C248.989 162.907 247.634 163.879 245.547 163.879C243.46 163.879 242.129 162.907 242.129 161.348C242.129 160.425 242.609 159.741 243.473 159.345C242.801 158.973 242.43 158.373 242.43 157.582C242.43 156.143 243.689 155.244 245.548 155.244C247.419 155.244 248.69 156.143 248.69 157.582C248.69 158.374 248.306 158.974 247.623 159.345C248.498 159.741 248.989 160.424 248.989 161.348ZM247.418 161.3C247.418 160.472 246.698 159.957 245.547 159.957C244.396 159.957 243.7 160.473 243.7 161.3C243.7 162.152 244.396 162.655 245.547 162.655C246.699 162.655 247.418 162.151 247.418 161.3ZM243.964 157.654C243.964 158.373 244.564 158.829 245.547 158.829C246.543 158.829 247.154 158.373 247.154 157.654C247.154 156.898 246.506 156.466 245.547 156.466C244.588 156.466 243.964 156.898 243.964 157.654Z" fill="#407BFF"/>
<path d="M250.072 162.847C250.072 162.247 250.515 161.852 251.055 161.852C251.595 161.852 252.038 162.248 252.038 162.847C252.038 163.423 251.594 163.843 251.055 163.843C250.516 163.842 250.072 163.422 250.072 162.847Z" fill="#407BFF"/>
<path d="M255.771 155.363V163.759H254.213V156.671H252.438V155.363H255.771Z" fill="#407BFF"/>
<path d="M263.521 162.438V163.757H257.333V162.713L260.667 159.547C261.482 158.767 261.626 158.276 261.626 157.808C261.626 157.04 261.098 156.596 260.067 156.596C259.252 156.596 258.568 156.872 258.1 157.472L257.008 156.633C257.656 155.758 258.819 155.242 260.198 155.242C262.021 155.242 263.197 156.165 263.197 157.653C263.197 158.468 262.969 159.212 261.806 160.303L259.563 162.438H263.521Z" fill="#407BFF"/>
<path d="M271.237 161.348C271.237 162.907 269.882 163.879 267.795 163.879C265.708 163.879 264.377 162.907 264.377 161.348C264.377 160.425 264.856 159.741 265.72 159.345C265.049 158.973 264.677 158.373 264.677 157.582C264.677 156.143 265.936 155.244 267.795 155.244C269.666 155.244 270.937 156.143 270.937 157.582C270.937 158.374 270.553 158.974 269.87 159.345C270.745 159.741 271.237 160.424 271.237 161.348ZM269.666 161.3C269.666 160.472 268.946 159.957 267.795 159.957C266.644 159.957 265.948 160.473 265.948 161.3C265.948 162.152 266.644 162.655 267.795 162.655C268.946 162.655 269.666 162.151 269.666 161.3ZM266.212 157.654C266.212 158.373 266.812 158.829 267.795 158.829C268.79 158.829 269.402 158.373 269.402 157.654C269.402 156.898 268.755 156.466 267.795 156.466C266.835 156.466 266.212 156.898 266.212 157.654Z" fill="#407BFF"/>
<path d="M238.888 213.615V214.36H238.343V213.622C237.691 213.582 237.059 213.369 236.713 213.07L237.012 212.398C237.338 212.664 237.837 212.857 238.343 212.903V211.572C237.605 211.392 236.813 211.153 236.813 210.228C236.813 209.549 237.305 208.957 238.343 208.857V208.105H238.888V208.844C239.381 208.87 239.879 209.017 240.239 209.25L239.966 209.922C239.613 209.716 239.241 209.603 238.888 209.563V210.907C239.627 211.086 240.431 211.319 240.431 212.244C240.432 212.923 239.933 213.509 238.888 213.615ZM238.343 210.768V209.584C237.871 209.657 237.671 209.897 237.671 210.189C237.671 210.508 237.957 210.655 238.343 210.768ZM239.58 212.305C239.58 211.979 239.288 211.826 238.888 211.713V212.891C239.374 212.817 239.58 212.591 239.58 212.305Z" fill="black"/>
<path d="M244.4 208.906V213.563H243.535V209.631H242.551V208.906H244.4Z" fill="black"/>
<path d="M246.933 208.906V213.563H246.068V209.631H245.084V208.906H246.933Z" fill="black"/>
<path d="M251.243 212.133C251.243 212.951 250.651 213.63 249.4 213.63C248.741 213.63 248.076 213.43 247.65 213.091L248.016 212.419C248.355 212.698 248.861 212.878 249.386 212.878C250.005 212.878 250.371 212.605 250.371 212.166C250.371 211.72 250.085 211.441 249.12 211.441H247.996L248.235 208.906H250.969V209.631H248.967L248.867 210.709H249.312C250.691 210.709 251.243 211.308 251.243 212.133Z" fill="black"/>
<path d="M252.805 213.058C252.805 213.204 252.771 213.324 252.652 213.63L252.313 214.568H251.774L252.04 213.55C251.853 213.47 251.727 213.297 251.727 213.058C251.727 212.725 251.96 212.506 252.266 212.506C252.578 212.505 252.805 212.731 252.805 213.058Z" fill="black"/>
<path d="M256.801 212.83V213.562H253.368V212.983L255.218 211.227C255.67 210.794 255.75 210.522 255.75 210.262C255.75 209.836 255.457 209.59 254.885 209.59C254.433 209.59 254.054 209.743 253.794 210.076L253.189 209.61C253.548 209.124 254.193 208.838 254.959 208.838C255.97 208.838 256.622 209.35 256.622 210.175C256.622 210.627 256.496 211.04 255.851 211.645L254.607 212.829L256.801 212.83Z" fill="black"/>
<path d="M257.277 211.233C257.277 209.703 258.115 208.838 259.22 208.838C260.331 208.838 261.169 209.703 261.169 211.233C261.169 212.763 260.331 213.628 259.22 213.628C258.116 213.628 257.277 212.764 257.277 211.233ZM260.298 211.233C260.298 210.109 259.859 209.59 259.22 209.59C258.588 209.59 258.149 210.109 258.149 211.233C258.149 212.357 258.588 212.876 259.22 212.876C259.859 212.877 260.298 212.358 260.298 211.233Z" fill="black"/>
<path d="M212.752 202.718C207.837 222.719 220.066 242.919 240.068 247.834C260.069 252.749 280.269 240.52 285.184 220.519C290.099 200.518 277.87 180.318 257.869 175.403C237.867 170.487 217.668 182.717 212.752 202.718ZM228.162 206.505C230.986 195.014 242.591 187.988 254.082 190.812C265.573 193.636 272.599 205.241 269.775 216.732C266.951 228.223 255.346 235.249 243.855 232.425C232.364 229.601 225.338 217.996 228.162 206.505Z" fill="#263238"/>
<path d="M217.169 231.127C226.133 245.757 244.509 252.891 261.727 246.661C279.059 240.393 289.293 221.976 285.464 203.948C281.623 185.852 265.579 173.961 248.214 174.324C253.447 174.221 257.324 179.171 256.013 184.236C255.566 185.978 254.563 187.442 253.221 188.483C251.888 189.526 250.214 190.145 248.416 190.195C248.265 190.196 248.12 190.206 247.966 190.216C258.114 189.724 267.596 196.552 269.9 207.06C272.201 217.501 266.237 228.235 256.155 231.806C246.344 235.273 235.913 231.226 230.761 222.929C229.612 221.068 227.826 219.798 225.821 219.305C224.52 218.985 223.138 218.995 221.786 219.381C216.754 220.819 214.438 226.666 217.169 231.127Z" fill="#407BFF"/>
<path d="M188.201 275.002H184.641V286.633H188.201V275.002Z" fill="#407BFF"/>
<path d="M197.136 278.002H193.576V286.633H197.136V278.002Z" fill="#407BFF"/>
<path d="M206.068 265H202.508V286.63H206.068V265Z" fill="#407BFF"/>
<path d="M215.007 260H211.447V286.63H215.007V260Z" fill="#407BFF"/>
<path d="M223.947 265H220.387V286.63H223.947V265Z" fill="#407BFF"/>
<path d="M232.878 275.002H229.318V286.633H232.878V275.002Z" fill="#407BFF"/>
<path d="M241.814 277.002H238.254V286.633H241.814V277.002Z" fill="#407BFF"/>
<path d="M250.749 278.002H247.189V286.633H250.749V278.002Z" fill="#407BFF"/>
<path d="M259.685 275.002H256.125V286.633H259.685V275.002Z" fill="#407BFF"/>
<path d="M268.619 270H265.059V286.63H268.619V270Z" fill="#407BFF"/>
<path d="M277.558 266H273.998V286.63H277.558V266Z" fill="#407BFF"/>
<path d="M286.488 262H282.928V286.63H286.488V262Z" fill="#407BFF"/>
<path d="M295.427 257H291.867V286.63H295.427V257Z" fill="#407BFF"/>
<path d="M304.369 264H300.809V286.63H304.369V264Z" fill="#407BFF"/>
<path d="M313.298 275.002H309.738V286.633H313.298V275.002Z" fill="#407BFF"/>
<path d="M206.068 265H202.508V270H206.068V265Z" fill="#263238"/>
<path d="M215.007 260H211.447V270H215.007V260Z" fill="#263238"/>
<path d="M223.947 265H220.387V270H223.947V265Z" fill="#263238"/>
<path d="M277.558 266H273.998V270H277.558V266Z" fill="#263238"/>
<path d="M286.488 262H282.928V270H286.488V262Z" fill="#263238"/>
<path d="M295.427 257H291.867V270H295.427V257Z" fill="#263238"/>
<path d="M304.369 264H300.809V270H304.369V264Z" fill="#263238"/>
<path d="M313.246 322.289H184.694C183.05 322.289 181.717 320.956 181.717 319.312V303.977C181.717 302.333 183.05 301 184.694 301H313.246C314.89 301 316.223 302.333 316.223 303.977V319.312C316.223 320.956 314.89 322.289 313.246 322.289Z" fill="#407BFF"/>
<g opacity="0.7">
<path d="M282.733 311.595H281.555V312.759H280.843V311.595H279.666V310.93H280.843V309.766H281.555V310.93H282.733V311.595Z" fill="white"/>
<path d="M287.4 313.644V314.389H286.855V313.651C286.203 313.611 285.571 313.398 285.225 313.099L285.524 312.427C285.85 312.693 286.349 312.886 286.855 312.932V311.602C286.117 311.422 285.325 311.183 285.325 310.258C285.325 309.579 285.818 308.987 286.855 308.887V308.135H287.4V308.874C287.892 308.9 288.391 309.047 288.751 309.279L288.478 309.951C288.125 309.745 287.752 309.632 287.4 309.592V310.937C288.139 311.116 288.943 311.349 288.943 312.274C288.944 312.952 288.445 313.537 287.4 313.644ZM286.855 310.796V309.612C286.383 309.685 286.183 309.925 286.183 310.217C286.183 310.537 286.469 310.684 286.855 310.796ZM288.092 312.333C288.092 312.007 287.8 311.854 287.4 311.741V312.919C287.886 312.846 288.092 312.619 288.092 312.333Z" fill="white"/>
<path d="M294.814 308.934V309.513L293.004 313.591H292.08L293.83 309.665H292V310.457H291.195V308.934H294.814Z" fill="white"/>
<path d="M298.613 312.161C298.613 312.979 298.021 313.658 296.77 313.658C296.112 313.658 295.446 313.458 295.02 313.119L295.386 312.447C295.725 312.726 296.231 312.906 296.757 312.906C297.376 312.906 297.742 312.634 297.742 312.194C297.742 311.749 297.456 311.469 296.491 311.469H295.367L295.606 308.934H298.34V309.66H296.338L296.238 310.737H296.684C298.06 310.737 298.613 311.336 298.613 312.161Z" fill="white"/>
<path d="M300.174 313.085C300.174 313.231 300.14 313.351 300.021 313.657L299.682 314.595H299.143L299.409 313.577C299.223 313.497 299.096 313.324 299.096 313.085C299.096 312.752 299.329 312.533 299.635 312.533C299.947 312.533 300.174 312.759 300.174 313.085Z" fill="white"/>
<path d="M300.65 311.262C300.65 309.732 301.488 308.867 302.592 308.867C303.703 308.867 304.541 309.731 304.541 311.262C304.541 312.792 303.703 313.658 302.592 313.658C301.488 313.657 300.65 312.792 300.65 311.262ZM303.67 311.262C303.67 310.138 303.231 309.619 302.592 309.619C301.96 309.619 301.521 310.137 301.521 311.262C301.521 312.387 301.96 312.906 302.592 312.906C303.231 312.905 303.67 312.387 303.67 311.262Z" fill="white"/>
<path d="M308.512 312.161C308.512 312.979 307.92 313.658 306.669 313.658C306.011 313.658 305.345 313.458 304.92 313.119L305.286 312.447C305.625 312.726 306.131 312.906 306.657 312.906C307.276 312.906 307.642 312.634 307.642 312.194C307.642 311.749 307.356 311.469 306.391 311.469H305.267L305.506 308.934H308.24V309.66H306.238L306.138 310.737H306.584C307.96 310.737 308.512 311.336 308.512 312.161Z" fill="white"/>
</g>
<path opacity="0.7" d="M222.755 310.027H191.44C190.782 310.027 190.248 309.493 190.248 308.835C190.248 308.177 190.782 307.643 191.44 307.643H222.755C223.413 307.643 223.947 308.177 223.947 308.835C223.947 309.493 223.413 310.027 222.755 310.027Z" fill="white"/>
<path opacity="0.7" d="M208.755 315.646H191.44C190.782 315.646 190.248 315.112 190.248 314.454C190.248 313.796 190.782 313.262 191.44 313.262H208.755C209.413 313.262 209.947 313.796 209.947 314.454C209.947 315.112 209.413 315.646 208.755 315.646Z" fill="white"/>
<path d="M313.246 351.289H184.694C183.05 351.289 181.717 349.956 181.717 348.312V332.977C181.717 331.333 183.05 330 184.694 330H313.246C314.89 330 316.223 331.333 316.223 332.977V348.312C316.223 349.956 314.89 351.289 313.246 351.289Z" fill="#407BFF"/>
<g opacity="0.7">
<path d="M280.432 340.396H282.262V341.087H280.432V340.396Z" fill="white"/>
<path d="M286.868 342.644V343.389H286.323V342.651C285.671 342.611 285.039 342.398 284.693 342.099L284.992 341.427C285.318 341.693 285.817 341.886 286.323 341.932V340.602C285.585 340.422 284.793 340.183 284.793 339.258C284.793 338.579 285.286 337.987 286.323 337.887V337.135H286.868V337.874C287.36 337.9 287.859 338.047 288.219 338.279L287.947 338.951C287.594 338.745 287.221 338.632 286.869 338.592V339.937C287.608 340.116 288.412 340.349 288.412 341.274C288.412 341.952 287.913 342.537 286.868 342.644ZM286.323 339.796V338.612C285.851 338.685 285.651 338.925 285.651 339.217C285.651 339.537 285.937 339.684 286.323 339.796ZM287.56 341.333C287.56 341.007 287.268 340.854 286.868 340.741V341.919C287.354 341.846 287.56 341.619 287.56 341.333Z" fill="white"/>
<path d="M294.157 341.161C294.157 341.979 293.565 342.658 292.314 342.658C291.656 342.658 290.99 342.458 290.564 342.119L290.93 341.447C291.269 341.726 291.775 341.906 292.301 341.906C292.92 341.906 293.286 341.634 293.286 341.194C293.286 340.749 293 340.469 292.035 340.469H290.911L291.15 337.934H293.884V338.66H291.881L291.781 339.737H292.227C293.604 339.737 294.157 340.336 294.157 341.161Z" fill="white"/>
<path d="M298.006 341.161C298.006 341.979 297.414 342.658 296.163 342.658C295.505 342.658 294.839 342.458 294.414 342.119L294.78 341.447C295.119 341.726 295.625 341.906 296.151 341.906C296.77 341.906 297.136 341.634 297.136 341.194C297.136 340.749 296.85 340.469 295.885 340.469H294.761L295 337.934H297.734V338.66H295.731L295.631 339.737H296.077C297.454 339.737 298.006 340.336 298.006 341.161Z" fill="white"/>
<path d="M299.568 342.085C299.568 342.231 299.535 342.351 299.415 342.657L299.076 343.595H298.537L298.803 342.577C298.616 342.497 298.49 342.324 298.49 342.085C298.49 341.752 298.723 341.533 299.029 341.533C299.342 341.533 299.568 341.759 299.568 342.085Z" fill="white"/>
<path d="M304.245 341.534H303.42V342.592H302.582V341.534H300.027V340.934L302.322 337.934H303.247L301.085 340.801H302.608V339.863H303.419V340.801H304.244V341.534H304.245Z" fill="white"/>
<path d="M308.453 341.253C308.453 342.118 307.702 342.657 306.544 342.657C305.386 342.657 304.648 342.118 304.648 341.253C304.648 340.741 304.914 340.362 305.393 340.143C305.02 339.937 304.814 339.604 304.814 339.164C304.814 338.366 305.512 337.867 306.543 337.867C307.581 337.867 308.286 338.366 308.286 339.164C308.286 339.603 308.073 339.936 307.694 340.143C308.181 340.362 308.453 340.741 308.453 341.253ZM307.582 341.227C307.582 340.768 307.183 340.482 306.544 340.482C305.905 340.482 305.52 340.768 305.52 341.227C305.52 341.7 305.906 341.979 306.544 341.979C307.183 341.979 307.582 341.699 307.582 341.227ZM305.666 339.204C305.666 339.603 305.999 339.856 306.544 339.856C307.096 339.856 307.436 339.603 307.436 339.204C307.436 338.785 307.077 338.546 306.544 338.546C306.012 338.546 305.666 338.785 305.666 339.204Z" fill="white"/>
</g>
<path opacity="0.7" d="M222.755 339.027H191.44C190.782 339.027 190.248 338.493 190.248 337.835C190.248 337.177 190.782 336.643 191.44 336.643H222.755C223.413 336.643 223.947 337.177 223.947 337.835C223.947 338.493 223.413 339.027 222.755 339.027Z" fill="white"/>
<path opacity="0.7" d="M208.755 344.646H191.44C190.782 344.646 190.248 344.112 190.248 343.454C190.248 342.796 190.782 342.262 191.44 342.262H208.755C209.413 342.262 209.947 342.796 209.947 343.454C209.947 344.112 209.413 344.646 208.755 344.646Z" fill="white"/>
<path d="M313.246 380.289H184.694C183.05 380.289 181.717 378.956 181.717 377.312V361.977C181.717 360.333 183.05 359 184.694 359H313.246C314.89 359 316.223 360.333 316.223 361.977V377.312C316.223 378.956 314.89 380.289 313.246 380.289Z" fill="#407BFF"/>
<g opacity="0.7">
<path d="M283.493 369.595H282.315V370.759H281.603V369.595H280.426V368.93H281.603V367.766H282.315V368.93H283.493V369.595Z" fill="white"/>
<path d="M288.159 371.644V372.389H287.614V371.651C286.962 371.611 286.33 371.398 285.984 371.099L286.283 370.427C286.609 370.693 287.108 370.886 287.614 370.932V369.602C286.876 369.422 286.084 369.183 286.084 368.258C286.084 367.579 286.576 366.987 287.614 366.887V366.135H288.159V366.874C288.652 366.9 289.15 367.047 289.51 367.279L289.237 367.951C288.884 367.745 288.512 367.632 288.159 367.592V368.937C288.898 369.116 289.702 369.349 289.702 370.274C289.702 370.952 289.203 371.537 288.159 371.644ZM287.613 368.796V367.612C287.141 367.685 286.941 367.925 286.941 368.217C286.941 368.537 287.227 368.684 287.613 368.796ZM288.851 370.333C288.851 370.007 288.559 369.854 288.159 369.741V370.919C288.645 370.846 288.851 370.619 288.851 370.333Z" fill="white"/>
<path d="M293.67 366.935V371.592H292.805V367.66H291.82V366.934H293.67V366.935Z" fill="white"/>
<path d="M298.374 370.253C298.374 371.118 297.622 371.657 296.464 371.657C295.306 371.657 294.568 371.118 294.568 370.253C294.568 369.741 294.834 369.362 295.313 369.143C294.94 368.937 294.734 368.604 294.734 368.164C294.734 367.366 295.432 366.867 296.463 366.867C297.501 366.867 298.206 367.366 298.206 368.164C298.206 368.603 297.993 368.936 297.614 369.143C298.101 369.362 298.374 369.741 298.374 370.253ZM297.502 370.227C297.502 369.768 297.103 369.482 296.464 369.482C295.825 369.482 295.44 369.768 295.44 370.227C295.44 370.7 295.826 370.979 296.464 370.979C297.103 370.979 297.502 370.699 297.502 370.227ZM295.586 368.204C295.586 368.603 295.919 368.856 296.464 368.856C297.016 368.856 297.356 368.603 297.356 368.204C297.356 367.785 296.997 367.546 296.464 367.546C295.932 367.546 295.586 367.785 295.586 368.204Z" fill="white"/>
<path d="M300.06 371.085C300.06 371.231 300.027 371.351 299.907 371.657L299.568 372.595H299.029L299.295 371.577C299.109 371.497 298.982 371.324 298.982 371.085C298.982 370.752 299.215 370.533 299.521 370.533C299.835 370.533 300.06 370.759 300.06 371.085Z" fill="white"/>
<path d="M304.057 370.857V371.589H300.624V371.01L302.474 369.254C302.926 368.821 303.006 368.548 303.006 368.289C303.006 367.863 302.713 367.617 302.141 367.617C301.689 367.617 301.309 367.769 301.05 368.102L300.445 367.636C300.804 367.151 301.449 366.865 302.215 366.865C303.226 366.865 303.879 367.377 303.879 368.202C303.879 368.654 303.753 369.067 303.107 369.673L301.863 370.857H304.057Z" fill="white"/>
<path d="M304.535 369.262C304.535 367.732 305.373 366.867 306.477 366.867C307.588 366.867 308.426 367.731 308.426 369.262C308.426 370.792 307.588 371.658 306.477 371.658C305.373 371.657 304.535 370.792 304.535 369.262ZM307.555 369.262C307.555 368.138 307.116 367.619 306.477 367.619C305.845 367.619 305.406 368.137 305.406 369.262C305.406 370.387 305.846 370.906 306.477 370.906C307.116 370.905 307.555 370.387 307.555 369.262Z" fill="white"/>
</g>
<path opacity="0.7" d="M222.755 368.027H191.44C190.782 368.027 190.248 367.493 190.248 366.835C190.248 366.177 190.782 365.643 191.44 365.643H222.755C223.413 365.643 223.947 366.177 223.947 366.835C223.947 367.493 223.413 368.027 222.755 368.027Z" fill="white"/>
<path opacity="0.7" d="M208.755 373.646H191.44C190.782 373.646 190.248 373.112 190.248 372.454C190.248 371.796 190.782 371.262 191.44 371.262H208.755C209.413 371.262 209.947 371.796 209.947 372.454C209.947 373.112 209.413 373.646 208.755 373.646Z" fill="white"/>
<path d="M109.274 155.761L122.988 155.771C125.027 155.772 126.681 154.121 126.683 152.081L126.693 138.367C126.694 136.328 125.043 134.673 123.003 134.672L109.289 134.662C107.25 134.661 105.596 136.313 105.594 138.352L105.584 152.066C105.583 154.105 107.235 155.759 109.274 155.761Z" fill="#407BFF"/>
<path opacity="0.6" d="M110.334 141.058C111.826 138.639 114.672 139.571 116.142 141.452C117.615 139.573 120.462 138.645 121.95 141.066C124.46 145.148 119.28 148.924 116.833 150.402C116.556 150.572 116.326 150.712 116.135 150.822C115.944 150.712 115.715 150.572 115.438 150.401C112.994 148.92 107.819 145.137 110.334 141.058Z" fill="white"/>
<path d="M113.865 154.129C113.865 154.129 116.63 160.461 122.826 162.443C122.826 162.443 119.399 160.463 119.667 153.869L113.865 154.129Z" fill="#407BFF"/>
<path d="M108.003 195.849C108.047 196.358 107.666 196.759 107.153 196.745L98.0166 196.498C97.5026 196.484 97.0516 196.06 97.0066 195.552L95.4546 177.465C95.4106 176.957 95.7946 176.43 96.3086 176.444L105.445 176.691C105.959 176.705 106.407 177.254 106.451 177.762L108.003 195.849Z" fill="#263238"/>
<path opacity="0.5" d="M105.439 177.616L107.014 195.878C107.059 196.393 106.782 196.734 106.272 196.721L98.525 196.512C98.005 196.498 97.061 196.186 97.016 195.671L95.443 177.347C95.398 176.832 96.297 176.445 96.816 176.459L104.563 176.668C105.074 176.68 105.395 177.101 105.439 177.616Z" fill="white"/>
<path d="M102.296 200.819L101.23 197.296C101.23 197.296 102.197 194.581 102.296 193.395C102.395 192.209 99.2297 182.945 99.2297 182.945C99.2297 182.945 95.7677 185.689 93.6907 187.069C91.6137 188.45 94.9157 197.391 95.4407 197.618C95.9657 197.845 96.9717 198.439 96.9717 198.439L97.6547 201.307L102.296 200.819Z" fill="#E4897B"/>
<path d="M96.5908 204.09C97.6608 208.23 102.291 224.97 107.831 227.22C109.281 227.81 110.991 227.44 112.781 226.51C118.791 223.4 125.581 214.02 125.581 214.02L124.211 207.18L122.941 200.82C117.921 203.29 112.191 215.33 110.601 215.24C109.261 215.17 105.931 204.86 104.951 201.72C104.791 201.21 104.261 200.93 103.751 201.08L97.2708 202.91C96.7608 203.05 96.4608 203.58 96.5908 204.09Z" fill="#407BFF"/>
<path d="M102.691 198.934L103.232 201.224L97.2735 202.908L96.5625 200.418L102.691 198.934Z" fill="#407BFF"/>
<path opacity="0.2" d="M102.691 198.934L103.232 201.224L97.2735 202.908L96.5625 200.418L102.691 198.934Z" fill="black"/>
<path opacity="0.2" d="M112.781 226.51C118.791 223.4 125.581 214.02 125.581 214.02L124.211 207.18C121.121 210.05 113.761 217.73 112.781 226.51Z" fill="black"/>
<path d="M158.205 328.864L158.162 320.132C158.162 319.838 158.366 319.582 158.653 319.517L165.047 318.069C165.619 317.945 166.184 318.309 166.308 318.881C166.325 318.958 166.333 319.036 166.332 319.114C166.3 321.94 166.136 323.998 166.154 327.546C166.165 329.731 166.425 336.323 166.44 339.34C166.455 342.357 163.476 342.765 163.195 341.532C161.961 335.997 160.267 331.835 158.668 330.069C158.364 329.742 158.198 329.31 158.205 328.864Z" fill="#263238"/>
<path d="M119.22 248.459L116.4 263.252C116.4 263.252 94.1091 299.331 94.1211 320.162C94.1361 345.045 159.043 330.689 159.043 330.689V319.232C159.043 319.232 120.244 322.566 116.749 318.675C112.506 313.951 138.666 277.391 138.666 277.391L119.22 248.459Z" fill="#263238"/>
<path opacity="0.2" d="M94.1191 320.164C94.1281 333.881 113.861 335.672 131.566 334.516C143.369 333.749 154.272 331.667 157.827 330.943C158.612 330.784 159.045 330.687 159.045 330.687V319.228C159.045 319.228 158.533 319.272 157.616 319.343C153.205 319.696 139.47 320.693 129.079 320.543C122.904 320.455 117.902 319.952 116.747 318.673C114.665 316.353 119.923 306.341 125.807 296.761C125.807 296.752 125.807 296.752 125.807 296.752C131.902 286.846 138.669 277.389 138.669 277.389L130.147 264.704L119.226 248.455L116.403 263.248C116.401 263.249 94.1101 299.328 94.1191 320.164Z" fill="white"/>
<path opacity="0.2" d="M129.078 320.544L131.566 334.517C143.369 333.75 154.272 331.668 157.827 330.944L157.616 319.344C153.204 319.697 139.469 320.694 129.078 320.544Z" fill="black"/>
<path opacity="0.2" d="M130.11 280.529C130.11 280.529 126.485 289.059 125.805 296.752C131.9 286.846 138.667 277.389 138.667 277.389L130.145 264.704L125.655 263.248C125.655 263.248 124.66 269.075 130.11 280.529Z" fill="black"/>
<path d="M135.91 405.774H144.642C144.936 405.776 145.191 405.98 145.255 406.268L146.672 412.669C146.793 413.242 146.427 413.805 145.854 413.926C145.777 413.942 145.699 413.95 145.621 413.949C142.795 413.903 140.738 413.729 137.19 413.729C135.005 413.729 128.412 413.958 125.394 413.958C122.377 413.958 121.983 410.977 123.218 410.703C128.759 409.496 132.929 407.823 134.703 406.232C135.031 405.929 135.464 405.766 135.91 405.774Z" fill="#263238"/>
<path d="M158.114 248.932C158.114 248.932 160.053 256.177 158.114 289.38C155.137 340.358 145.687 408.226 145.687 408.226L134.701 406.231C134.701 406.231 136.103 304.71 134.627 276.694C134.627 276.694 119.103 262.771 119.219 248.459C119.337 234.148 158.114 248.932 158.114 248.932Z" fill="#263238"/>
<path opacity="0.2" d="M158.114 248.932C158.114 248.932 160.053 256.177 158.114 289.38C155.137 340.358 145.687 408.226 145.687 408.226L134.701 406.231C134.701 406.231 136.103 304.71 134.627 276.694C134.627 276.694 119.103 262.771 119.219 248.459C119.337 234.148 158.114 248.932 158.114 248.932Z" fill="white"/>
<path d="M118.41 247.51C118.4 248.22 118.97 248.8 119.68 248.81L155.88 249.62L158.45 249.68C159.15 249.7 159.74 249.17 159.78 248.47L160.51 238.94L160.9 233.81L162.76 209.37L163.15 204.21C145.42 190.97 122.94 200.82 122.94 200.82C118.9 213.53 118.46 240.58 118.41 247.51Z" fill="#407BFF"/>
<path d="M159.127 249.509L118.66 248.273L118.186 250.679L159.127 252.01V249.509Z" fill="#407BFF"/>
<path opacity="0.2" d="M159.127 249.509L118.66 248.273L118.186 250.679L159.127 252.01V249.509Z" fill="black"/>
<path opacity="0.2" d="M160.901 233.809L162.761 209.369C161.771 209.669 160.761 210.209 159.761 211.039C159.761 211.039 153.441 220.879 160.901 233.809Z" fill="black"/>
<path opacity="0.2" d="M155.881 249.619L158.451 249.679C159.151 249.699 159.741 249.169 159.781 248.469L160.511 238.939C159.071 241.819 157.021 246.159 155.881 249.619Z" fill="black"/>
<g opacity="0.7">
<path d="M122.559 220.494L123.004 219.333C123.507 219.682 124.265 219.912 124.958 219.88C125.776 219.843 126.106 219.563 126.085 219.12C126.029 217.898 122.665 219.204 122.549 216.652C122.494 215.442 123.4 214.608 124.891 214.54C125.626 214.506 126.474 214.672 126.987 214.997L126.541 216.158C125.997 215.823 125.463 215.727 124.935 215.751C124.149 215.787 123.789 216.103 123.808 216.523C123.867 217.817 127.231 216.511 127.345 219.015C127.4 220.213 126.482 221.035 124.93 221.106C124.01 221.148 123.074 220.879 122.559 220.494Z" fill="white"/>
</g>
<path d="M150.691 200.491C147.206 203.657 138.669 202.487 138.669 202.487C138.669 202.487 133.34 201.028 134.459 199.363C137.598 198.844 139.118 197.379 139.745 195.505C140.109 194.413 140.164 193.185 140.063 191.92C140.017 191.256 139.917 190.583 139.799 189.918L150.353 182.102C148.971 187.262 147.279 196.752 150.691 200.491Z" fill="#E4897B"/>
<path opacity="0.2" d="M147.917 187.07C147.498 193.403 142.294 195.15 139.746 195.504C140.11 194.412 140.165 193.184 140.064 191.919L147.917 187.07Z" fill="black"/>
<path d="M153.874 165.691C153.874 165.691 156.819 175.216 152.207 179.742C147.596 184.267 144.873 166.122 144.873 166.122L153.874 165.691Z" fill="#263238"/>
<path d="M138.35 189.743C141.402 192.975 145.637 193.305 149.023 191.647C151.201 190.584 153.023 188.691 153.959 186.223C154.086 185.9 154.191 185.563 154.287 185.217C155.939 178.878 155.186 168.337 148.301 165.377C143.407 163.232 137.687 165.461 135.543 170.364C134.924 171.754 134.655 173.276 134.737 174.8C135.008 181.881 134.834 186.057 138.35 189.743Z" fill="#E4897B"/>
<path d="M145.447 176.998C145.396 177.569 145.727 178.046 146.11 178.053C146.493 178.06 146.8 177.595 146.815 177.021C146.83 176.447 146.526 175.972 146.152 175.965C145.779 175.959 145.463 176.415 145.447 176.998Z" fill="#263238"/>
<path d="M151.966 177.13C151.915 177.701 152.255 178.179 152.629 178.185C153.003 178.191 153.319 177.727 153.334 177.152C153.349 176.578 153.045 176.103 152.671 176.096C152.297 176.091 151.979 176.583 151.966 177.13Z" fill="#263238"/>
<path d="M149.89 177.371C150.541 179.149 151.435 180.828 152.546 182.361C151.732 182.918 150.714 183.087 149.764 182.823L149.89 177.371Z" fill="#DE5753"/>
<path d="M143.467 174.845C143.592 174.865 143.718 174.818 143.798 174.72C144.315 174.031 145.127 173.627 145.988 173.63C146.173 173.647 146.337 173.511 146.354 173.326C146.371 173.141 146.235 172.977 146.05 172.96H146.049C144.96 172.929 143.924 173.428 143.27 174.299C143.151 174.442 143.169 174.654 143.312 174.773C143.314 174.775 143.316 174.776 143.318 174.778C143.364 174.807 143.414 174.83 143.467 174.845Z" fill="#263238"/>
<path d="M154.814 174.937C154.877 174.964 154.947 174.97 155.013 174.955C155.183 174.88 155.26 174.681 155.184 174.511C155.183 174.509 155.182 174.506 155.181 174.504C154.746 173.501 153.851 172.773 152.781 172.552C152.597 172.525 152.426 172.652 152.399 172.836C152.377 173.019 152.502 173.188 152.684 173.219C153.523 173.418 154.219 174.003 154.561 174.795C154.622 174.877 154.714 174.929 154.814 174.937Z" fill="#263238"/>
<path d="M140.111 166.068L140.578 169.179C139.569 169.753 138.983 170.925 139.489 172.141C140.569 174.739 139.191 178.852 137.221 180.532C137.221 180.532 137.127 179.396 136.175 179.692C135.223 179.988 135.65 185.905 137.6 188.679C137.6 188.679 134.214 185.644 132.444 179.469C130.807 173.758 130.975 169.528 132.096 167.27L140.111 166.068Z" fill="#263238"/>
<path d="M131.525 180.545C132.278 182.164 133.643 183.417 135.319 184.031C137.544 184.828 138.825 182.876 138.354 180.685C137.916 178.742 136.244 175.921 133.937 176.091C131.629 176.261 130.625 178.546 131.525 180.545Z" fill="#E4897B"/>
<path d="M148.961 184.896C148.092 185.687 146.864 187.341 146.864 187.341C146.694 187.257 146.524 187.172 146.359 187.079C144.084 185.878 143.426 184.57 143.386 183.483C143.366 182.889 143.54 182.357 143.734 181.952C143.954 181.481 144.218 181.195 144.218 181.195C145.043 182.552 147.078 183.835 148.193 184.475C148.656 184.747 148.961 184.896 148.961 184.896Z" fill="#263238"/>
<path d="M148.192 184.474L147.555 185.179C145.415 184.043 144.061 182.956 143.734 181.952C143.954 181.481 144.218 181.195 144.218 181.195C145.043 182.552 147.077 183.834 148.192 184.474Z" fill="white"/>
<path d="M146.36 187.078C144.085 185.877 143.427 184.569 143.387 183.482C144.146 183.921 145.013 184.535 145.648 185.316C146.136 185.911 146.316 186.527 146.36 187.078Z" fill="#DE5753"/>
<path d="M131.237 172.022C131.237 172.022 130.071 167.132 134.722 163.247C139.373 159.362 152.428 157.538 154.406 163.247C156.384 168.956 146.746 174.198 139.746 169.154L131.237 172.022Z" fill="#263238"/>
<path d="M149.497 195.713L139.359 200.285L138.765 196.62L135.038 197.931C133.7 198.402 132.86 199.729 133.007 201.14L133.427 205.162L138.571 202.347L141.134 205.973L153.312 200.107L149.497 195.713Z" fill="#407BFF"/>
<path opacity="0.7" d="M149.497 195.713L139.359 200.285L138.765 196.62L135.038 197.931C133.7 198.402 132.86 199.729 133.007 201.14L133.427 205.162L138.571 202.347L141.134 205.973L153.312 200.107L149.497 195.713Z" fill="white"/>
<path opacity="0.2" d="M151.117 252.011C151.117 252.011 151.351 257.418 158.34 259.725C158.34 259.725 158.78 256.15 157.782 251.967L151.117 252.011Z" fill="black"/>
<path d="M163.153 204.209C169.351 210.209 178.579 229.395 175.844 237.703C173.521 244.758 162.709 255.38 159.502 258.422C159.012 258.887 158.236 258.86 157.781 258.36L153.937 254.136C153.547 253.707 153.514 253.066 153.864 252.603C156.36 249.306 165.803 236.715 166.441 234.142C167.175 231.175 159.127 219.505 159.127 219.505C159.127 219.505 157.9 214.476 158.977 209.276C160.054 204.077 163.153 204.209 163.153 204.209Z" fill="#407BFF"/>
<path d="M153.673 253.656L152.275 255.111C152.275 255.111 154.451 258.408 157.088 259.067L157.782 258.362L153.673 253.656Z" fill="#407BFF"/>
<path opacity="0.2" d="M153.673 253.656L152.275 255.111C152.275 255.111 154.451 258.408 157.088 259.067L157.782 258.362L153.673 253.656Z" fill="black"/>
</svg>
